<svg width="244" height="55" viewBox="0 0 244 55" xmlns="http://www.w3.org/2000/svg"
     xmlns:xlink="http://www.w3.org/1999/xlink">
    <title>Group</title>
    <desc>Created using Figma</desc>
    <use xlink:href="#a" transform="translate(85.909 13.861)" fill="#007FAC"/>
    <use xlink:href="#b" transform="translate(110.752 13.862)" fill="#007FAC"/>
    <use xlink:href="#c" transform="translate(150.682 14)" fill="#007FAC"/>
    <use xlink:href="#d" transform="translate(179.413 13.862)" fill="#007FAC"/>
    <use xlink:href="#e" transform="translate(204.611 6.343)" fill="#007FAC"/>
    <use xlink:href="#f" transform="translate(220.962 13.965)" fill="#007FAC"/>
    <use xlink:href="#g" transform="translate(.001 18.445)" fill="#C00418"/>
    <use xlink:href="#h" fill="#E53517"/>
    <use xlink:href="#i" transform="translate(0 12.207)" fill="#FFF"/>
    <defs>
        <path id="a"
              d="M14.135 12.033l-6.133-1.877c-1.574-.495-1.639-.71-1.639-1.452 0-.756 0-2.762 3.632-2.762 2.252 0 4.018 1.275 4.376 1.632a3.023 3.023 0 0 0 2.06.794c.83 0 1.614-.337 2.114-.881 1.176-1.175 1.156-2.968-.012-4.136C16.57 1.253 13.43 0 10.133 0 6.193 0 .33 2.232.33 8.382c0 5.479 3.994 6.728 5.698 7.26l6.886 2.158c1.543.475 1.722 1.367 1.722 1.998 0 .985 0 3.036-4.595 3.036-2.35 0-4.75-1.665-5.019-1.905-1.142-1.054-3.069-1.018-4.175.086-1.13 1.131-1.127 2.908-.004 4.119 1.26 1.391 4.845 3.598 9.105 3.598 9.758 0 10.812-6.279 10.812-8.979.001-3.802-2.164-6.326-6.625-7.72z"/>
        <path id="b"
              d="M25.164 0c-2.62 0-4.842 1.089-6.629 3.242C16.802 1.119 14.182.047 10.721.047c-2.309 0-3.946.676-5.229 1.652A2.984 2.984 0 0 0 2.971.321 2.94 2.94 0 0 0 0 3.292v22.284a2.94 2.94 0 0 0 2.971 2.972 2.974 2.974 0 0 0 2.971-2.972V11.5c0-2.654 1.495-5.512 4.778-5.512 2.865 0 4.319.846 4.319 5.466v14.122a2.941 2.941 0 0 0 2.972 2.972c1.666 0 2.972-1.285 2.972-2.926V11.316c0-1.615.406-5.375 4.182-5.375 2.83 0 4.365.871 4.365 5.467v14.168c0 1.666 1.285 2.972 2.926 2.972 1.691 0 3.017-1.285 3.017-2.926V12.096C35.471 3.617 32.388 0 25.164 0z"/>
        <path id="c"
              d="M23.812 23.305c-.397-.438-1.453-1.604-1.453-3.782V3.154A2.94 2.94 0 0 0 19.388.183a2.885 2.885 0 0 0-2.562 1.537C15.109.576 13.25 0 11.271 0 4.53 0 0 4.805 0 11.957v4.494c0 7.262 4.475 12.143 11.133 12.143 2.572 0 5.069-1 7.092-2.795.386.605.86 1.238 1.397 1.709a2.9 2.9 0 0 0 2.078.885c.771 0 1.505-.309 2.021-.827a2.841 2.841 0 0 0 .916-2 3.095 3.095 0 0 0-.604-1.94 1.444 1.444 0 0 0-.221-.321zm-12.677-.654c-3.193 0-5.1-2.062-5.1-5.512V11.27c0-3.336 1.957-5.328 5.236-5.328 3.152 0 5.189 2.234 5.189 5.695v5.502c.002 3.402-2.038 5.512-5.325 5.512z"/>
        <path id="d"
              d="M11.042 0C8.899 0 7.063.559 5.491 1.693A2.944 2.944 0 0 0 2.972.321 2.94 2.94 0 0 0 0 3.292v30.4a2.941 2.941 0 0 0 2.972 2.972 2.941 2.941 0 0 0 2.972-2.972v-6.094c1.496.74 3.235 1.133 5.098 1.133 6.783 0 10.996-4.514 10.996-11.775V11.82C22.038 4.529 17.825 0 11.042 0zm0 5.941c3.188 0 4.871 1.779 4.871 5.146v6.558c0 3.443-1.639 5.189-4.871 5.189-3.336 0-5.098-1.795-5.098-5.189v-6.008c.001-3.407 2.635-5.696 5.098-5.696z"/>
        <path id="e"
              d="M12.508 30.032h-1.797V2.924C10.711 1.312 9.377 0 7.738 0H2.924A2.894 2.894 0 0 0 0 2.924c0 1.664 1.332 3.017 2.971 3.017h1.798v24.092H2.924C1.285 30.033 0 31.338 0 33.004c0 1.641 1.305 2.926 2.971 2.926h9.537c1.639 0 2.972-1.312 2.972-2.926a2.94 2.94 0 0 0-2.972-2.972z"/>
        <path id="f"
              d="M21.948 1.6C21.557.867 20.864.315 19.988.074c-1.481-.351-3.044.583-3.54 2.07l-5.25 14.553L5.76 2.062C5.322.822 4.213.022 2.933.022c-.273 0-.55.037-.888.134a2.963 2.963 0 0 0-1.87 3.81l7.844 21.382-1.87 5.317H5.075a2.975 2.975 0 0 0-2.971 2.97c0 1.642 1.305 2.927 2.97 2.927h2.218c.807 0 2.947 0 3.832-2.428l11.016-30.3a2.83 2.83 0 0 0-.191-2.234z"/>
        <path id="g"
              d="M62.686 27.715c-5.199-1.615-8.929-5.539-12.28-9.9a5.29 5.29 0 0 1-1.501.24 5.346 5.346 0 0 1-5.343-5.344c0-1.085.328-2.09.882-2.933C40.589 4.851 36.345.812 29.867 0c-.428 2.523-2.61 4.45-5.256 4.45-2.044 0-3.8-1.162-4.699-2.85-4.371 2.382-6.865 6.866-9.453 11.531-1.881 3.393-3.799 6.834-6.462 9.502.037.252.077.502.077.764 0 2.513-1.739 4.604-4.074 5.179v3.646a4.132 4.132 0 0 0 4.132 4.133h58.455c2.282 0 4.13-1.85 4.132-4.131a5.33 5.33 0 0 1-4.033-4.509z"/>
        <path id="h"
              d="M62.587 0H4.132A4.132 4.132 0 0 0 0 4.132V36.66a5.365 5.365 0 0 1 2.647 1.573c2.045-2.276 3.636-5.137 5.264-8.069 2.75-4.958 5.776-10.371 11.403-13.066.235-2.734 2.504-4.89 5.298-4.89a5.347 5.347 0 0 1 4.918 3.25c7.871.708 12.847 5.417 17.127 10.866a5.3 5.3 0 0 1 2.249-.513 5.347 5.347 0 0 1 5.347 5.346 5.299 5.299 0 0 1-1.371 3.54c2.955 3.819 6.096 7.077 10.26 8.524a5.352 5.352 0 0 1 3.577-2.914V4.132A4.132 4.132 0 0 0 62.587 0z"/>
        <path id="i"
              d="M66.719 28.099a5.352 5.352 0 0 0-3.577 2.914c-4.164-1.447-7.305-4.705-10.26-8.524a5.299 5.299 0 0 0 1.371-3.54 5.347 5.347 0 0 0-5.347-5.346c-.806 0-1.563.192-2.249.513C42.376 8.667 37.4 3.958 29.53 3.25A5.347 5.347 0 0 0 24.612 0c-2.794 0-5.063 2.155-5.298 4.89-5.626 2.696-8.653 8.109-11.403 13.066-1.628 2.934-3.218 5.793-5.264 8.069A5.365 5.365 0 0 0 0 24.452v10.36c2.335-.573 4.074-2.666 4.074-5.179 0-.262-.041-.512-.077-.764 2.663-2.668 4.581-6.109 6.462-9.502 2.588-4.665 5.082-9.149 9.453-11.531.898 1.688 2.655 2.85 4.699 2.85 2.646 0 4.829-1.927 5.256-4.45 6.478.812 10.721 4.852 14.577 9.778a5.32 5.32 0 0 0-.882 2.932 5.346 5.346 0 0 0 5.343 5.345c.525 0 1.022-.101 1.501-.24 3.351 4.361 7.081 8.285 12.28 9.9a5.327 5.327 0 0 0 4.032 4.508l.001-10.36z"/>
    </defs>
</svg>